<?xml version="1.0" encoding="UTF-8"?>
<svg id="Capa_3" data-name="Capa 3" xmlns="http://www.w3.org/2000/svg" viewBox="0 0 978.57 974.73">
  <defs>
    <style>
      .cls-1 {
        fill: #fff;
      }
    </style>
  </defs>
  <circle class="cls-1" cx="653.86" cy="185.04" r="74.7"/>
  <circle class="cls-1" cx="291.1" cy="842.09" r="40.6"/>
  <path class="cls-1" d="M23.7,894.39C-147.47,756.21,681.9-65.56,978.57,69.06,645.9,112.91-29.95,845.31,128.89,855.04c236.12,14.47,640.74-338.9,639.89-340.36-.9-1.55-557.32,531.28-745.08,379.71Z"/>
  <path class="cls-1" d="M321.98,518.74C17.25,224.14,78.87,163.33,108.03,132.85c9.16-9.57-92.65-1.92-102.96,63.33-37.24,235.66,736.17,766.13,895.81,570.1,56.64-69.55-118.99-251.98-120.82-251.29-3.89,1.46,155.04,150.17,107.87,235.37-45.48,82.14-353.91-26.63-565.95-231.62Z"/>
</svg>